<svg width="12" height="8" viewBox="0 0 12 8" fill="none" xmlns="http://www.w3.org/2000/svg">
<path d="M6.018 4.19801C6.288 4.21601 6.54 4.10801 6.81 4.01801C8.232 3.55001 9.654 3.08201 11.058 2.59601C11.148 2.56001 11.22 2.52401 11.292 2.47001C11.382 2.39801 11.382 2.30801 11.292 2.23601C11.22 2.18201 11.13 2.12801 11.04 2.11001C9.528 1.66001 8.016 1.21001 6.504 0.742011C6.162 0.634011 5.82 0.634011 5.46 0.742011C3.966 1.19201 2.454 1.64201 0.959996 2.09201C0.869996 2.12801 0.779996 2.16401 0.689997 2.21801C0.581996 2.29001 0.581996 2.39801 0.689997 2.47001C0.761996 2.52401 0.833996 2.56001 0.905995 2.57801C2.4 3.08201 3.912 3.58601 5.424 4.07201C5.622 4.16201 5.802 4.19801 6.018 4.19801Z" fill="#AEAEAE"/>
<path d="M9.006 4.27003C9.222 4.21603 9.276 4.36003 9.276 4.46803C9.276 5.04403 9.276 5.60203 9.276 6.17803C9.276 6.37603 9.204 6.50203 9.078 6.62803C9.024 6.68203 8.97 6.71803 8.916 6.75403C8.556 7.00603 8.142 7.16803 7.71 7.27602C6.864 7.51002 6 7.54603 5.136 7.43803C4.578 7.36603 4.02 7.22203 3.498 6.98803C3.264 6.88003 3.048 6.75403 2.886 6.57403C2.778 6.46603 2.724 6.35803 2.742 6.19603C2.724 5.65603 2.724 5.09803 2.724 4.54003C2.724 4.23403 2.94 4.27003 3.03 4.28803C3.822 4.55803 4.632 4.81003 5.424 5.08003C5.82 5.20603 6.198 5.20603 6.594 5.08003L9.006 4.27003Z" fill="#AEAEAE"/>
<path d="M1.51799 3.74802C1.58999 3.76602 1.60799 3.80202 1.60799 3.87402C1.60799 4.37802 1.60799 4.88202 1.60799 5.38602C1.60799 5.44002 1.62599 5.49402 1.64399 5.54802C1.75199 5.81802 1.87799 6.08802 1.96799 6.35802C2.05799 6.61002 2.00399 6.86202 1.82399 7.06002C1.76999 7.13202 1.69799 7.18602 1.62599 7.24002C1.55399 7.29402 1.44599 7.33002 1.35599 7.34802C1.19399 7.36602 1.06799 7.27602 0.959989 7.18602C0.905989 7.13202 0.851989 7.07802 0.797989 7.02402C0.671988 6.86202 0.635989 6.62802 0.689989 6.41202C0.761989 6.10602 0.887989 5.83602 1.03199 5.56602C1.06799 5.51202 1.08599 5.44002 1.08599 5.38602C1.08599 4.82802 1.08599 4.28802 1.08599 3.73002C1.08599 3.62202 1.17599 3.64002 1.21199 3.65802L1.51799 3.74802Z" fill="#AEAEAE"/>
</svg>
