<svg width="8" height="11" viewBox="0 0 8 11" fill="none" xmlns="http://www.w3.org/2000/svg">
<path d="M2.43468 5.07692C1.47423 5.07692 0.695623 4.12982 0.695623 2.96154V1.26923C0.695623 1.03561 0.851373 0.846154 1.04343 0.846154H1.39125C1.58331 0.846154 1.73906 0.6567 1.73906 0.423077C1.73906 0.189454 1.58331 0 1.39125 0H1.04343C0.467181 0 0 0.568277 0 1.26923V2.96154C0.00090431 3.93174 0.393584 4.83958 1.05039 5.39C1.67861 6.06371 2.05306 7.02054 2.08687 8.03846C2.08687 9.67408 3.17691 11 4.52155 11C5.86619 11 6.95623 9.67408 6.95623 8.03846V7.55615C7.7002 7.32253 8.14756 6.39946 7.9555 5.4945C7.76336 4.58954 7.00458 4.04538 6.26061 4.279C5.51664 4.51271 5.06929 5.43569 5.26135 6.34065C5.38788 6.93677 5.77054 7.40224 6.26061 7.55615V8.03846C6.26061 9.20675 5.482 10.1538 4.52155 10.1538C3.5611 10.1538 2.78249 9.20675 2.78249 8.03846C2.81804 7.01927 3.19514 6.06218 3.82593 5.39C4.48009 4.83763 4.87006 3.93022 4.86936 2.96154V1.26923C4.86936 0.568277 4.40218 0 3.82593 0H3.47812C3.28605 0 3.1303 0.189454 3.1303 0.423077C3.1303 0.6567 3.28605 0.846154 3.47812 0.846154H3.82593C4.01799 0.846154 4.17374 1.03561 4.17374 1.26923V2.96154C4.17374 4.12982 3.39513 5.07692 2.43468 5.07692ZM6.60842 6.76923C6.22423 6.76923 5.9128 6.39041 5.9128 5.92308C5.9128 5.45575 6.22423 5.07692 6.60842 5.07692C6.99261 5.07692 7.30404 5.45575 7.30404 5.92308C7.30404 6.39041 6.99261 6.76923 6.60842 6.76923Z" fill="#AEAEAE"/>
</svg>
