<svg width="9" height="11" viewBox="0 0 9 11" fill="none" xmlns="http://www.w3.org/2000/svg">
<path d="M4.5 0C2.01868 0 0 1.99832 0 4.45462C0 5.46816 0.335532 6.42269 0.970338 7.21502C1.79229 8.24091 4.18255 10.6768 4.28389 10.78L4.49997 11L4.71608 10.78C4.81748 10.6767 7.20846 8.24035 8.03054 7.21412C8.66477 6.42242 9 5.46822 9 4.45462C9 1.99832 6.98132 0 4.5 0ZM7.55819 6.84334C6.89641 7.66944 5.11916 9.50715 4.5 10.1428C3.8809 9.50718 2.10428 7.67001 1.44265 6.8442C0.893236 6.15842 0.602825 5.33214 0.602825 4.45462C0.602825 2.32737 2.35108 0.596746 4.5 0.596746C6.64889 0.596746 8.39717 2.32737 8.39714 4.45462C8.39714 5.3322 8.10704 6.15821 7.55819 6.84334Z" fill="#AEAEAE"/>
<path d="M4.5 2C3.12148 2 2 3.12148 2 4.5C2 5.87852 3.12151 7 4.5 7C5.87849 7 7 5.87849 7 4.5C7 3.12151 5.87852 2 4.5 2ZM4.5 6.43422C3.43345 6.43422 2.56578 5.56652 2.56578 4.5C2.56578 3.43345 3.43348 2.56578 4.5 2.56578C5.56652 2.56578 6.43419 3.43348 6.43422 4.5C6.43422 5.56655 5.56655 6.43422 4.5 6.43422Z" fill="#AEAEAE"/>
</svg>
