<svg width="30" height="31" viewBox="0 0 30 31" fill="none" xmlns="http://www.w3.org/2000/svg">
<path d="M28.5274 13.2554C27.8338 13.2554 27.2753 12.6983 27.2753 12.0064C27.2753 7.4389 23.5436 3.71631 18.9649 3.71631C18.2713 3.71631 17.7128 3.15915 17.7128 2.46729C17.7128 1.77543 18.2713 1.21826 18.9649 1.21826C24.9307 1.21826 29.7794 6.05518 29.7794 12.0064C29.7794 12.6983 29.2209 13.2554 28.5274 13.2554Z" fill="white"/>
<path d="M18.9648 6.03711C22.2669 6.03711 24.9552 8.71884 24.9552 12.0128C24.9552 12.7047 24.3967 13.2619 23.7031 13.2619C23.0096 13.2619 22.451 12.7047 22.451 12.0128C22.451 10.0964 20.8921 8.54129 18.971 8.54129C18.2774 8.54129 17.7189 7.98412 17.7189 7.29226C17.7127 6.59427 18.2713 6.03711 18.9648 6.03711Z" fill="white"/>
<path d="M1.81615 2.69417C2.85955 1.64719 4.1546 0.961449 5.57241 0.698173C7.67149 0.312445 9.97926 0.979817 11.2498 2.4064C15.6628 7.35352 10.9367 11.9027 10.9061 11.9272C12.152 14.7436 15.9144 18.509 18.6702 19.7091C18.7009 19.6785 23.1753 15.0007 28.1959 19.3356C30.6755 21.4724 30.608 26.095 27.9381 28.7707C27.0297 29.6891 25.9434 30.2646 24.722 30.485C22.7579 30.8401 20.7693 30.234 19.0692 29.6095C11.5014 26.8236 4.20984 20.0458 0.98756 11.5292C-0.0926723 8.67602 -0.841469 5.35753 1.81615 2.69417ZM3.55925 10.6047C7.79425 21.2275 16.209 25.5195 19.996 27.0441C24.0652 28.6849 25.4769 27.3686 25.9986 26.8481C27.6067 25.2317 27.8215 22.6235 26.2625 21.2581C23.3962 18.7601 20.665 21.4296 20.2353 22.0969C19.9284 22.5684 19.3269 22.7643 18.7807 22.6235C14.8464 21.6194 9.0893 15.8824 7.97838 11.8598C7.82494 11.3149 8.05203 10.7516 8.49394 10.3965C9.1875 9.83321 11.8022 7.35965 9.31639 4.34117C8.64738 3.52685 5.94681 2.43701 3.75565 4.62281C2.47288 5.89633 2.36854 7.61068 3.55925 10.6047Z" fill="white"/>
</svg>
